# xmcd CD database file
#
# Track frame offsets:
#	150
#	26917
#	53365
#	109445
#	137987
#	176325
#	203995
#	237737
#	272000
#
# Disc length: 4022 seconds
#
# Revision: 0
# Processed by: cddbd v1.5.1PL2 Copyright (c) Steve Scherf et al.
# Submitted via: CDex 1.51
#
DISCID=850fb409
DTITLE=James Williams All-Stars - Classic Encounters
DYEAR=2000
DGENRE=Jazz
TTITLE0=Strike Up The Band
TTITLE1=Come Rain Or Come Shine
TTITLE2=I Got Rhythm
TTITLE3=This Time The Dream's On Me
TTITLE4=Love Walked In
TTITLE5=My Shining Hour
TTITLE6=Golden Earrings
TTITLE7=Somebody Loves Me
TTITLE8=Come Sunday
EXTD=YEAR: 2000
EXTT0=
EXTT1=
EXTT2=
EXTT3=
EXTT4=
EXTT5=
EXTT6=
EXTT7=
EXTT8=
PLAYORDER=
